<svg xmlns="http://www.w3.org/2000/svg" version="1.1" xmlns:xlink="http://www.w3.org/1999/xlink" xmlns:svgjs="http://svgjs.dev/svgjs" width="1000" height="1816" viewBox="0 0 1000 1816"><g transform="matrix(1,0,0,1,-0.059089610664784686,1.4091319003620129)"><svg viewBox="0 0 136 247" data-background-color="#8abcd7" preserveAspectRatio="xMidYMid meet" height="1816" width="1000" xmlns="http://www.w3.org/2000/svg" xmlns:xlink="http://www.w3.org/1999/xlink"><g id="tight-bounds" transform="matrix(1,0,0,1,0.008036187050407761,-0.19166056133778397)"><svg viewBox="0 0 135.98392762589918 247.2" height="247.2" width="135.98392762589918"><g><svg viewBox="0 0 488.86272 888.684909267055" height="247.2" width="135.98392762589918"><g><rect width="397.4975999999999" height="19.580101699804736" x="45.68256000000005" y="600.7280408355518" fill="#ffffff" opacity="1" stroke-width="0" stroke="transparent" fill-opacity="1" class="rect-i$-0" data-fill-palette-color="primary" rx="1%" id="i$-0" data-palette-color="#ffffff"></rect></g><g transform="matrix(1,0,0,1,46.67136000000002,671.5649532678297)"><svg viewBox="0 0 395.52 217.1199559992254" height="217.1199559992254" width="395.52"><g id="textblocktransform"><svg viewBox="0 0 395.52 217.1199559992254" height="217.1199559992254" width="395.52" id="textblock"><g><svg viewBox="0 0 395.52 217.1199559992254" height="217.1199559992254" width="395.52"><g transform="matrix(1,0,0,1,0,0)"><svg width="395.52" viewBox="2.596874916675 -37.06298701298701 67.5159455961455 37.06298701298701" height="217.1199559992254" data-palette-color="#ffffff"><path d="M15.55-23.95L15.55-23.95Q15.55-22.9 14.8-22.2 14.05-21.5 13-21.5 11.95-21.5 11.25-22.25 10.55-23 10.55-24.05L10.55-24.05Q10.75-32.85 10.9-34.75L10.9-34.75Q11-35.8 11.8-36.48 12.6-37.15 13.63-37.05 14.65-36.95 15.33-36.15 16-35.35 15.9-34.35L15.9-34.35Q15.75-32.6 15.55-23.95L15.55-23.95ZM7.6-23.9L7.6-23.9Q7.55-22.85 6.8-22.15 6.05-21.45 5-21.5 3.95-21.55 3.25-22.3 2.55-23.05 2.6-24.1L2.6-24.1Q2.65-25.85 2.65-34.2L2.65-34.2Q2.65-35.25 3.38-35.98 4.1-36.7 5.15-36.7 6.2-36.7 6.93-35.98 7.65-35.25 7.65-34.2L7.65-34.2Q7.65-25.75 7.6-23.9L7.6-23.9ZM47.2-1.7L46.2-5.3 45.3-7.8Q45.05-8.8 44.6-9.93 44.15-11.05 43.65-11.8L43.65-11.8Q42.7-13.15 40.92-13.93 39.15-14.7 35.5-14.9L35.5-14.9Q35-14.9 34.5-14.85L34.5-14.85Q34-14.85 32.52-14.7 31.05-14.55 30.4-14.5L30.4-14.5Q29-14.35 28.3-14.45L28.3-14.45Q28.4-7.15 28.4-2.55L28.4-2.55Q28.4-1.5 27.67-0.78 26.95-0.05 25.9-0.05 24.85-0.05 24.12-0.78 23.4-1.5 23.4-2.55L23.4-2.55Q23.4-7.45 23.27-17.28 23.15-27.1 23.15-32L23.15-32Q23.15-32.85 23.7-33.55L23.7-33.55Q23.85-34.25 24.4-34.75 24.95-35.25 25.7-35.35L25.7-35.35Q28.55-35.8 32.1-35.88 35.65-35.95 40.35-35.35L40.35-35.35Q42.05-35.1 43.52-34.68 45-34.25 46.62-33.43 48.25-32.6 49.37-31.53 50.5-30.45 51.2-28.83 51.9-27.2 51.8-25.2L51.8-25.2Q51.6-19.75 45.5-17.05L45.5-17.05Q46.8-16.05 47.75-14.65L47.75-14.65Q48.45-13.6 49.1-12.05 49.75-10.5 50.12-9.28 50.5-8.05 51.07-6.15 51.65-4.25 52-3.1L52-3.1Q52.3-2.15 51.8-1.23 51.3-0.3 50.32 0 49.35 0.3 48.42-0.2 47.5-0.7 47.2-1.7L47.2-1.7ZM28.25-19.75L28.85-19.85Q29.2-19.9 29.7-19.9L29.7-19.9Q30.5-19.95 31.8-19.95L31.8-19.95Q34.3-20 35-19.95L35-19.95 35.5-19.95Q39.85-20.25 42.65-21.3L42.65-21.3Q46.7-22.75 46.8-25.4L46.8-25.4Q46.95-29.2 39.55-30.45L39.55-30.45Q34.45-31.3 28.15-30.65L28.15-30.65Q28.15-26.45 28.25-19.75L28.25-19.75ZM69.75-23.95L69.75-23.95Q69.75-22.9 69-22.2 68.25-21.5 67.2-21.5 66.15-21.5 65.45-22.25 64.75-23 64.75-24.05L64.75-24.05Q64.95-32.85 65.1-34.75L65.1-34.75Q65.2-35.8 66-36.48 66.8-37.15 67.82-37.05 68.85-36.95 69.52-36.15 70.2-35.35 70.1-34.35L70.1-34.35Q69.95-32.6 69.75-23.95L69.75-23.95ZM61.8-23.9L61.8-23.9Q61.75-22.85 61-22.15 60.25-21.45 59.2-21.5 58.15-21.55 57.45-22.3 56.75-23.05 56.8-24.1L56.8-24.1Q56.85-25.85 56.85-34.2L56.85-34.2Q56.85-35.25 57.57-35.98 58.3-36.7 59.35-36.7 60.4-36.7 61.12-35.98 61.85-35.25 61.85-34.2L61.85-34.2Q61.85-25.75 61.8-23.9L61.8-23.9Z" opacity="1" transform="matrix(1,0,0,1,0,0)" fill="#ffffff" class="undefined-text-0" data-fill-palette-color="primary" id="text-0"></path></svg></g></svg></g></svg></g></svg></g><g><svg viewBox="0 0 488.86272 549.4712301030787" height="549.4712301030787" width="488.86272"><g><svg xmlns="http://www.w3.org/2000/svg" xmlns:xlink="http://www.w3.org/1999/xlink" version="1.1" x="0" y="0" viewBox="6.96 1.0420000000000016 87.99100000000001 98.9" enable-background="new 0 0 100 100" xml:space="preserve" height="549.4712301030787" width="488.86272" class="icon-icon-0" data-fill-palette-color="accent" id="icon-0"><g fill="#f012be" data-fill-palette-color="accent"><path d="M45.682 42.003L32.685 28.501c-2.059 2.181-3.547 4.738-4.162 7.393-0.371 1.601-0.79 5.783-0.79 5.783l-5.056 10.096c-0.08 0.179-0.118 0.388-0.118 0.601 0 0.854 0.688 1.546 1.544 1.546h3.63v5.362c0 4.08 1.611 6.133 3.982 7.016l13.966-4.133V42.003zM33.833 45.29c-1.245 0-2.256-1.01-2.256-2.257 0-1.246 1.011-2.256 2.256-2.256 1.246 0 2.256 1.011 2.256 2.256C36.09 44.28 35.079 45.29 33.833 45.29z" fill="#f012be" data-fill-palette-color="accent"></path><path d="M94.909 51.364L17.19 74.359l3.644 11.404 74.087-20.94C94.917 59.577 94.912 54.789 94.909 51.364z" fill="#f012be" data-fill-palette-color="accent"></path><path d="M21.633 69.279c-6.609-5.851-10.792-14.384-10.792-23.884 0-10.623 5.227-20.037 13.232-25.84l-2.709-2.815C12.634 23.273 6.96 33.675 6.96 45.395c0 9.8 3.965 18.688 10.367 25.158L21.633 69.279z" fill="#f012be" data-fill-palette-color="accent"></path><g fill="#f012be" data-fill-palette-color="accent"><path d="M61.684 47.275c2.73 0 4.952-2.221 4.952-4.952s-2.222-4.953-4.952-4.953-4.953 2.222-4.953 4.953S58.953 47.275 61.684 47.275z" fill="#f012be" data-fill-palette-color="accent"></path><path d="M94.907 47.6c-0.001-0.875-0.002-1.408-0.002-1.513 0-24.838-20.294-45.045-45.236-45.045-10.379 0-20.519 3.587-28.551 10.102l-0.072 0.06 28.245 29.345v20.548L94.907 47.6zM61.684 34.663c1.528 0 2.951 0.455 4.147 1.229l5.062-5.062 1.914 1.915-4.998 4.997c0.959 1.28 1.534 2.862 1.534 4.58 0 4.224-3.436 7.659-7.659 7.659-4.225 0-7.661-3.436-7.661-7.659S57.459 34.663 61.684 34.663z" fill="#f012be" data-fill-palette-color="accent"></path></g><g fill="#f012be" data-fill-palette-color="accent"><path d="M67.171 82.44c11.377 0 21.792 6.712 27.773 17.502h0.007c0 0-0.014-16.597-0.026-31.367L21.848 89.229c-2.525 3.826-4.456 7.692-6.821 10.713h24.375C45.488 88.983 55.864 82.44 67.171 82.44z" fill="#f012be" data-fill-palette-color="accent"></path><path d="M67.171 86.155c-9.31 0-17.937 5.115-23.449 13.787h46.902C85.182 91.392 76.533 86.155 67.171 86.155z" fill="#f012be" data-fill-palette-color="accent"></path></g></g></svg></g></svg></g><g></g></svg></g><defs></defs></svg><rect width="135.98392762589918" height="247.2" fill="none" stroke="none" visibility="hidden"></rect></g></svg></g></svg>